<svg xmlns="http://www.w3.org/2000/svg" viewBox="0 0 202.71 65.42"><defs><style>.cls-1{fill:#eb2224;}.cls-2{font-size:10.36px;}.cls-10,.cls-2{font-family:Tahoma;}.cls-3{letter-spacing:0em;}.cls-4{letter-spacing:0em;}.cls-5{letter-spacing:0em;}.cls-6{letter-spacing:-0.01em;}.cls-7{letter-spacing:0em;}.cls-8{letter-spacing:0em;}.cls-9{letter-spacing:-0.02em;}.cls-10{font-size:51.01px;}.cls-11{letter-spacing:0em;}.cls-12{letter-spacing:0em;}</style></defs><g id="Layer_2" data-name="Layer 2"><g id="Layer_1-2" data-name="Layer 1"><path class="cls-1" d="M47.66,5.05c-2.89,3.26-5.73,6.48-8.59,9.68L14,42.9,6,52c-1.47,1.64-2.78,1.69-4.44.18A4.54,4.54,0,0,1,0,49c0-.45,0-.91,0-1.36V10.12C0,5.47,1.5,4,6.14,4Q24.8,4,43.47,4A6.56,6.56,0,0,1,47.66,5.05Z"/><path class="cls-1" d="M49.29,39.49c0,3.4.11,6.65,0,9.88a4,4,0,0,1-4,3.9c-1.84.17-3.7.17-5.55.17-8.42,0-16.85,0-25.27,0H13.31c1.14-1.34,2.14-2.52,3.15-3.69q4-4.58,8-9.16a3,3,0,0,1,2.33-1.2l21.5.06C48.59,39.44,48.93,39.48,49.29,39.49Z"/><path class="cls-1" d="M30.55,33.49,49.21,11.9V33.49Z"/><text class="cls-2" transform="translate(55.88 54.22)">A<tspan class="cls-3" x="6.21" y="0">l</tspan><tspan class="cls-4" x="8.61" y="0">l</tspan><tspan x="10.99" y="0">iance </tspan><tspan class="cls-5" x="38.04" y="0">S</tspan><tspan x="43.84" y="0">oft</tspan><tspan class="cls-6" x="56.23" y="0">w</tspan><tspan x="63.82" y="0">a</tspan><tspan class="cls-7" x="69.26" y="0">r</tspan><tspan class="cls-8" x="72.95" y="0">e </tspan><tspan class="cls-7" x="81.64" y="0">I</tspan><tspan x="85.45" y="0">ncorpo</tspan><tspan class="cls-9" x="116.72" y="0">r</tspan><tspan x="120.28" y="0" xml:space="preserve">ated  </tspan></text><text class="cls-10" transform="translate(52.5 44.05) scale(1.03 1)"><tspan class="cls-11">l</tspan><tspan class="cls-12" x="11.81" y="0">l</tspan><tspan x="23.51" y="0">iance</tspan></text></g></g></svg>